# xmcd CD database file
#
# Track frame offsets:
#	150
#	16250
#	46885
#	78658
#	93710
#	138983
#	169675
#	199070
#	231788
#	251530
#
# Disc length: 3551 seconds
#
# Revision: 0
# Processed by: cddbd v1.5.1PL2 Copyright (c) Steve Scherf et al.
# Submitted via: CDex 1.51
#
DISCID=7d0ddd0a
DTITLE=SUPER MUSIC SELECTION - Movie Memories スクリーン・クラシック・セレクション
DYEAR=90
DGENRE=Other
TTITLE0=四季
TTITLE1=愛と哀しみの果て
TTITLE2=アマデウス
TTITLE3=哀愁のトロイメライ
TTITLE4=2001年宇宙の旅
TTITLE5=みじかくも美しく燃え
TTITLE6=さよならをもう一度
TTITLE7=ファンタジア
TTITLE8=愛情物語
TTITLE9=禁じられた遊び
EXTD=YEAR: 90
EXTT0=
EXTT1=
EXTT2=
EXTT3=
EXTT4=
EXTT5=
EXTT6=
EXTT7=
EXTT8=
EXTT9=
PLAYORDER=
